<?xml version="1.0" encoding="UTF-8" standalone="no"?> <svg id="Layer_1" data-name="Layer 1" xmlns="http://www.w3.org/2000/svg" viewBox="0 0 512 512"><title>Wishlist</title><path d="M405.333,53.333H362.667V42.667a21.356,21.356,0,0,0-21.333-21.333H170.667a21.356,21.356,0,0,0-21.333,21.333V53.333H106.667A42.716,42.716,0,0,0,64,96V448a42.716,42.716,0,0,0,42.667,42.667H405.333A42.716,42.716,0,0,0,448,448V96A42.716,42.716,0,0,0,405.333,53.333ZM170.667,42.667H341.333l.016,42.667H170.667ZM426.667,448a21.354,21.354,0,0,1-21.333,21.333H106.667A21.354,21.354,0,0,1,85.333,448V96a21.356,21.356,0,0,1,21.333-21.333h42.667V85.333a21.356,21.356,0,0,0,21.333,21.333H341.333a21.356,21.356,0,0,0,21.333-21.333V74.667h42.667A21.356,21.356,0,0,1,426.667,96Z"/><path d="M373.333,181.333H224a10.667,10.667,0,0,0,0,21.333H373.333a10.667,10.667,0,1,0,0-21.333Z"/><path d="M170.667,160H149.333A21.356,21.356,0,0,0,128,181.333v21.333A21.356,21.356,0,0,0,149.333,224h21.333A21.356,21.356,0,0,0,192,202.667V181.333A21.356,21.356,0,0,0,170.667,160Zm-21.333,42.667V181.333h21.333l.016,21.333Z"/><path d="M373.333,277.333H224a10.667,10.667,0,0,0,0,21.333H373.333a10.667,10.667,0,1,0,0-21.333Z"/><path d="M170.667,256H149.333A21.354,21.354,0,0,0,128,277.333v21.333A21.354,21.354,0,0,0,149.333,320h21.333A21.354,21.354,0,0,0,192,298.667V277.333A21.354,21.354,0,0,0,170.667,256Zm-21.333,42.667V277.333h21.333l.016,21.333Z"/><path d="M373.333,373.333H224a10.667,10.667,0,0,0,0,21.333H373.333a10.667,10.667,0,1,0,0-21.333Z"/><path d="M170.667,352H149.333A21.354,21.354,0,0,0,128,373.333v21.333A21.354,21.354,0,0,0,149.333,416h21.333A21.354,21.354,0,0,0,192,394.667V373.333A21.354,21.354,0,0,0,170.667,352Zm-21.333,42.667V373.333h21.333l.016,21.333Z"/></svg>