<?xml version="1.0" encoding="UTF-8" standalone="no"?> <svg id="Layer_1" data-name="Layer 1" xmlns="http://www.w3.org/2000/svg" viewBox="0 0 512 512"><title>Wishlist</title><polygon points="149.333 277.333 149.333 298.667 170.682 298.667 170.667 277.333 149.333 277.333"/><path d="M405.333,53.333h-32V64a42.716,42.716,0,0,1-42.667,42.667H181.333A42.716,42.716,0,0,1,138.667,64V53.333h-32A42.716,42.716,0,0,0,64,96V448a42.716,42.716,0,0,0,42.667,42.667H405.333A42.716,42.716,0,0,0,448,448V96A42.716,42.716,0,0,0,405.333,53.333ZM192,394.667A21.356,21.356,0,0,1,170.667,416H149.333A21.356,21.356,0,0,1,128,394.667V373.333A21.356,21.356,0,0,1,149.333,352h21.333A21.356,21.356,0,0,1,192,373.333Zm0-96A21.356,21.356,0,0,1,170.667,320H149.333A21.356,21.356,0,0,1,128,298.667V277.333A21.356,21.356,0,0,1,149.333,256h21.333A21.356,21.356,0,0,1,192,277.333Zm0-96A21.356,21.356,0,0,1,170.667,224H149.333A21.356,21.356,0,0,1,128,202.667V181.333A21.356,21.356,0,0,1,149.333,160h21.333A21.356,21.356,0,0,1,192,181.333Zm181.333,192H224a10.667,10.667,0,1,1,0-21.333H373.333a10.667,10.667,0,0,1,0,21.333Zm0-96H224a10.667,10.667,0,1,1,0-21.333H373.333a10.667,10.667,0,1,1,0,21.333Zm0-96H224a10.667,10.667,0,1,1,0-21.333H373.333a10.667,10.667,0,1,1,0,21.333Z"/><polygon points="149.333 181.333 149.333 202.667 170.682 202.667 170.667 181.333 149.333 181.333"/><polygon points="149.333 373.333 149.333 394.667 170.682 394.667 170.667 373.333 149.333 373.333"/><rect x="160" y="21.333" width="192" height="64" rx="21.333" ry="21.333"/></svg>